<svg width="512" height="270" viewBox="0 0 512 270" fill="none" xmlns="http://www.w3.org/2000/svg">
<path d="M493.227 89.7237L410.667 6.31036C408.683 4.31082 406.324 2.72374 403.724 1.64068C401.125 0.557611 398.336 0 395.52 0C392.704 0 389.915 0.557611 387.316 1.64068C384.716 2.72374 382.357 4.31082 380.373 6.31036C376.4 10.3074 374.17 15.7144 374.17 21.3504C374.17 26.9863 376.4 32.3933 380.373 36.3904L456.32 112.977H21.3333C15.6754 112.977 10.2492 115.225 6.24839 119.225C2.24761 123.226 0 128.652 0 134.31C0 139.968 2.24761 145.395 6.24839 149.395C10.2492 153.396 15.6754 155.644 21.3333 155.644H457.6L380.373 232.657C378.374 234.64 376.787 237 375.704 239.599C374.621 242.199 374.063 244.987 374.063 247.804C374.063 250.62 374.621 253.408 375.704 256.008C376.787 258.608 378.374 260.967 380.373 262.95C382.357 264.95 384.716 266.537 387.316 267.62C389.915 268.703 392.704 269.261 395.52 269.261C398.336 269.261 401.125 268.703 403.724 267.62C406.324 266.537 408.683 264.95 410.667 262.95L493.227 180.177C505.212 168.177 511.944 151.91 511.944 134.95C511.944 117.99 505.212 101.724 493.227 89.7237Z" fill="white"/>
</svg>
